<mxfile host="Electron" agent="Mozilla/5.0 (Windows NT 10.0; Win64; x64) AppleWebKit/537.36 (KHTML, like Gecko) draw.io/25.0.2 Chrome/128.0.6613.186 Electron/32.2.5 Safari/537.36" version="25.0.2" pages="3">
  <diagram name="Страница — 1" id="RDupdh8WcMcQyDv7rK0E">
    <mxGraphModel dx="684" dy="804" grid="1" gridSize="10" guides="1" tooltips="1" connect="1" arrows="1" fold="1" page="1" pageScale="1" pageWidth="827" pageHeight="1169" math="0" shadow="0">
      <root>
        <mxCell id="0" />
        <mxCell id="1" parent="0" />
        <mxCell id="Itst8vlbAY4EgOO2xT6g-3" value="" style="ellipse;whiteSpace=wrap;html=1;" vertex="1" parent="1">
          <mxGeometry x="40" y="80" width="120" height="80" as="geometry" />
        </mxCell>
        <mxCell id="Itst8vlbAY4EgOO2xT6g-4" value="" style="ellipse;whiteSpace=wrap;html=1;aspect=fixed;" vertex="1" parent="1">
          <mxGeometry x="60" y="20" width="80" height="80" as="geometry" />
        </mxCell>
        <mxCell id="Itst8vlbAY4EgOO2xT6g-5" value="" style="ellipse;whiteSpace=wrap;html=1;" vertex="1" parent="1">
          <mxGeometry x="40" y="280" width="120" height="80" as="geometry" />
        </mxCell>
        <mxCell id="Itst8vlbAY4EgOO2xT6g-6" value="" style="ellipse;whiteSpace=wrap;html=1;aspect=fixed;" vertex="1" parent="1">
          <mxGeometry x="60" y="220" width="80" height="80" as="geometry" />
        </mxCell>
        <mxCell id="Itst8vlbAY4EgOO2xT6g-7" value="" style="ellipse;whiteSpace=wrap;html=1;" vertex="1" parent="1">
          <mxGeometry x="40" y="480" width="120" height="80" as="geometry" />
        </mxCell>
        <mxCell id="Itst8vlbAY4EgOO2xT6g-8" value="" style="ellipse;whiteSpace=wrap;html=1;aspect=fixed;" vertex="1" parent="1">
          <mxGeometry x="60" y="420" width="80" height="80" as="geometry" />
        </mxCell>
        <mxCell id="Itst8vlbAY4EgOO2xT6g-9" value="Клиент&lt;div&gt;&lt;font style=&quot;font-size: 6px;&quot;&gt;[person]&lt;/font&gt;&lt;/div&gt;&lt;div&gt;&lt;font style=&quot;font-size: 10px;&quot;&gt;использует приложение Hospital App&lt;/font&gt;&lt;/div&gt;" style="text;html=1;align=center;verticalAlign=middle;whiteSpace=wrap;rounded=0;" vertex="1" parent="1">
          <mxGeometry x="50" y="100" width="100" height="40" as="geometry" />
        </mxCell>
        <mxCell id="Itst8vlbAY4EgOO2xT6g-10" value="Администратор" style="text;html=1;align=center;verticalAlign=middle;whiteSpace=wrap;rounded=0;" vertex="1" parent="1">
          <mxGeometry x="70" y="305" width="60" height="30" as="geometry" />
        </mxCell>
        <mxCell id="Itst8vlbAY4EgOO2xT6g-11" value="Врач" style="text;html=1;align=center;verticalAlign=middle;whiteSpace=wrap;rounded=0;" vertex="1" parent="1">
          <mxGeometry x="70" y="505" width="60" height="30" as="geometry" />
        </mxCell>
        <mxCell id="Itst8vlbAY4EgOO2xT6g-12" value="" style="rounded=1;whiteSpace=wrap;html=1;" vertex="1" parent="1">
          <mxGeometry x="414" y="270" width="140" height="100" as="geometry" />
        </mxCell>
        <mxCell id="Itst8vlbAY4EgOO2xT6g-13" value="Hospital App" style="text;html=1;align=center;verticalAlign=middle;whiteSpace=wrap;rounded=0;" vertex="1" parent="1">
          <mxGeometry x="454" y="305" width="60" height="30" as="geometry" />
        </mxCell>
        <mxCell id="Itst8vlbAY4EgOO2xT6g-17" value="" style="endArrow=block;dashed=1;endFill=0;endSize=12;html=1;rounded=0;exitX=1;exitY=0.5;exitDx=0;exitDy=0;entryX=0;entryY=0;entryDx=0;entryDy=0;" edge="1" parent="1" source="Itst8vlbAY4EgOO2xT6g-3" target="Itst8vlbAY4EgOO2xT6g-12">
          <mxGeometry width="160" relative="1" as="geometry">
            <mxPoint x="180" y="120" as="sourcePoint" />
            <mxPoint x="330" y="119.5" as="targetPoint" />
          </mxGeometry>
        </mxCell>
        <mxCell id="Itst8vlbAY4EgOO2xT6g-21" value="Использует" style="edgeLabel;html=1;align=center;verticalAlign=middle;resizable=0;points=[];" vertex="1" connectable="0" parent="Itst8vlbAY4EgOO2xT6g-17">
          <mxGeometry x="-0.0146" relative="1" as="geometry">
            <mxPoint as="offset" />
          </mxGeometry>
        </mxCell>
        <mxCell id="Itst8vlbAY4EgOO2xT6g-18" value="" style="endArrow=block;dashed=1;endFill=0;endSize=12;html=1;rounded=0;exitX=1;exitY=0.5;exitDx=0;exitDy=0;entryX=0;entryY=1;entryDx=0;entryDy=0;" edge="1" parent="1" source="Itst8vlbAY4EgOO2xT6g-7" target="Itst8vlbAY4EgOO2xT6g-12">
          <mxGeometry width="160" relative="1" as="geometry">
            <mxPoint x="164" y="520" as="sourcePoint" />
            <mxPoint x="414" y="650" as="targetPoint" />
          </mxGeometry>
        </mxCell>
        <mxCell id="Itst8vlbAY4EgOO2xT6g-22" value="Использует" style="edgeLabel;html=1;align=center;verticalAlign=middle;resizable=0;points=[];" vertex="1" connectable="0" parent="Itst8vlbAY4EgOO2xT6g-18">
          <mxGeometry x="-0.0378" y="4" relative="1" as="geometry">
            <mxPoint as="offset" />
          </mxGeometry>
        </mxCell>
        <mxCell id="Itst8vlbAY4EgOO2xT6g-19" value="" style="endArrow=block;dashed=1;endFill=0;endSize=12;html=1;rounded=0;exitX=1;exitY=0.5;exitDx=0;exitDy=0;entryX=0;entryY=0.5;entryDx=0;entryDy=0;" edge="1" parent="1" source="Itst8vlbAY4EgOO2xT6g-5" target="Itst8vlbAY4EgOO2xT6g-12">
          <mxGeometry width="160" relative="1" as="geometry">
            <mxPoint x="190" y="330" as="sourcePoint" />
            <mxPoint x="340" y="320" as="targetPoint" />
          </mxGeometry>
        </mxCell>
        <mxCell id="Itst8vlbAY4EgOO2xT6g-20" value="Использует" style="edgeLabel;html=1;align=center;verticalAlign=middle;resizable=0;points=[];" vertex="1" connectable="0" parent="Itst8vlbAY4EgOO2xT6g-19">
          <mxGeometry x="-0.1787" y="1" relative="1" as="geometry">
            <mxPoint as="offset" />
          </mxGeometry>
        </mxCell>
      </root>
    </mxGraphModel>
  </diagram>
  <diagram id="4aof3cwNsfSnPwUsqmvH" name="Страница — 2">
    <mxGraphModel dx="907" dy="804" grid="1" gridSize="10" guides="1" tooltips="1" connect="1" arrows="1" fold="1" page="1" pageScale="1" pageWidth="827" pageHeight="1169" math="0" shadow="0">
      <root>
        <mxCell id="0" />
        <mxCell id="1" parent="0" />
        <mxCell id="dDRyToY2QR6ktd-7hIjk-1" value="" style="ellipse;whiteSpace=wrap;html=1;" vertex="1" parent="1">
          <mxGeometry x="40" y="140" width="120" height="80" as="geometry" />
        </mxCell>
        <mxCell id="dDRyToY2QR6ktd-7hIjk-2" value="" style="ellipse;whiteSpace=wrap;html=1;aspect=fixed;" vertex="1" parent="1">
          <mxGeometry x="60" y="80" width="80" height="80" as="geometry" />
        </mxCell>
        <mxCell id="dDRyToY2QR6ktd-7hIjk-3" value="" style="ellipse;whiteSpace=wrap;html=1;" vertex="1" parent="1">
          <mxGeometry x="40" y="340" width="120" height="80" as="geometry" />
        </mxCell>
        <mxCell id="dDRyToY2QR6ktd-7hIjk-4" value="" style="ellipse;whiteSpace=wrap;html=1;aspect=fixed;" vertex="1" parent="1">
          <mxGeometry x="60" y="280" width="80" height="80" as="geometry" />
        </mxCell>
        <mxCell id="dDRyToY2QR6ktd-7hIjk-5" value="" style="ellipse;whiteSpace=wrap;html=1;" vertex="1" parent="1">
          <mxGeometry x="40" y="540" width="120" height="80" as="geometry" />
        </mxCell>
        <mxCell id="dDRyToY2QR6ktd-7hIjk-6" value="" style="ellipse;whiteSpace=wrap;html=1;aspect=fixed;" vertex="1" parent="1">
          <mxGeometry x="60" y="480" width="80" height="80" as="geometry" />
        </mxCell>
        <mxCell id="dDRyToY2QR6ktd-7hIjk-7" value="Клиент&lt;div&gt;&lt;font style=&quot;font-size: 6px;&quot;&gt;[person]&lt;/font&gt;&lt;/div&gt;&lt;div&gt;&lt;font style=&quot;font-size: 10px;&quot;&gt;использует приложение Hospital App&lt;/font&gt;&lt;/div&gt;" style="text;html=1;align=center;verticalAlign=middle;whiteSpace=wrap;rounded=0;" vertex="1" parent="1">
          <mxGeometry x="50" y="160" width="100" height="40" as="geometry" />
        </mxCell>
        <mxCell id="dDRyToY2QR6ktd-7hIjk-8" value="Администратор" style="text;html=1;align=center;verticalAlign=middle;whiteSpace=wrap;rounded=0;" vertex="1" parent="1">
          <mxGeometry x="70" y="365" width="60" height="30" as="geometry" />
        </mxCell>
        <mxCell id="dDRyToY2QR6ktd-7hIjk-9" value="Врач" style="text;html=1;align=center;verticalAlign=middle;whiteSpace=wrap;rounded=0;" vertex="1" parent="1">
          <mxGeometry x="70" y="565" width="60" height="30" as="geometry" />
        </mxCell>
        <mxCell id="dDRyToY2QR6ktd-7hIjk-11" value="" style="endArrow=block;dashed=1;endFill=0;endSize=12;html=1;rounded=0;exitX=1;exitY=0;exitDx=0;exitDy=0;entryX=0;entryY=0.5;entryDx=0;entryDy=0;" edge="1" parent="1" source="dDRyToY2QR6ktd-7hIjk-1" target="dDRyToY2QR6ktd-7hIjk-22">
          <mxGeometry width="160" relative="1" as="geometry">
            <mxPoint x="180" y="180" as="sourcePoint" />
            <mxPoint x="414" y="330" as="targetPoint" />
          </mxGeometry>
        </mxCell>
        <mxCell id="dDRyToY2QR6ktd-7hIjk-12" value="Использует" style="edgeLabel;html=1;align=center;verticalAlign=middle;resizable=0;points=[];" vertex="1" connectable="0" parent="dDRyToY2QR6ktd-7hIjk-11">
          <mxGeometry x="-0.0146" relative="1" as="geometry">
            <mxPoint as="offset" />
          </mxGeometry>
        </mxCell>
        <mxCell id="dDRyToY2QR6ktd-7hIjk-13" value="" style="endArrow=block;dashed=1;endFill=0;endSize=12;html=1;rounded=0;exitX=1;exitY=0.5;exitDx=0;exitDy=0;entryX=0;entryY=0.75;entryDx=0;entryDy=0;" edge="1" parent="1" source="dDRyToY2QR6ktd-7hIjk-5" target="dDRyToY2QR6ktd-7hIjk-29">
          <mxGeometry width="160" relative="1" as="geometry">
            <mxPoint x="164" y="580" as="sourcePoint" />
            <mxPoint x="414" y="430" as="targetPoint" />
          </mxGeometry>
        </mxCell>
        <mxCell id="dDRyToY2QR6ktd-7hIjk-14" value="Использует" style="edgeLabel;html=1;align=center;verticalAlign=middle;resizable=0;points=[];" vertex="1" connectable="0" parent="dDRyToY2QR6ktd-7hIjk-13">
          <mxGeometry x="-0.0378" y="4" relative="1" as="geometry">
            <mxPoint as="offset" />
          </mxGeometry>
        </mxCell>
        <mxCell id="dDRyToY2QR6ktd-7hIjk-15" value="" style="endArrow=block;dashed=1;endFill=0;endSize=12;html=1;rounded=0;exitX=1;exitY=0.5;exitDx=0;exitDy=0;" edge="1" parent="1" source="dDRyToY2QR6ktd-7hIjk-3" target="dDRyToY2QR6ktd-7hIjk-29">
          <mxGeometry width="160" relative="1" as="geometry">
            <mxPoint x="190" y="390" as="sourcePoint" />
            <mxPoint x="414" y="380" as="targetPoint" />
          </mxGeometry>
        </mxCell>
        <mxCell id="dDRyToY2QR6ktd-7hIjk-16" value="Использует" style="edgeLabel;html=1;align=center;verticalAlign=middle;resizable=0;points=[];" vertex="1" connectable="0" parent="dDRyToY2QR6ktd-7hIjk-15">
          <mxGeometry x="-0.1787" y="1" relative="1" as="geometry">
            <mxPoint as="offset" />
          </mxGeometry>
        </mxCell>
        <mxCell id="dDRyToY2QR6ktd-7hIjk-17" value="" style="endArrow=none;dashed=1;html=1;dashPattern=1 3;strokeWidth=2;rounded=0;" edge="1" parent="1">
          <mxGeometry width="50" height="50" relative="1" as="geometry">
            <mxPoint x="440" y="560" as="sourcePoint" />
            <mxPoint x="440" y="40" as="targetPoint" />
          </mxGeometry>
        </mxCell>
        <mxCell id="dDRyToY2QR6ktd-7hIjk-18" value="" style="endArrow=none;dashed=1;html=1;dashPattern=1 3;strokeWidth=2;rounded=0;" edge="1" parent="1">
          <mxGeometry width="50" height="50" relative="1" as="geometry">
            <mxPoint x="1040" y="560" as="sourcePoint" />
            <mxPoint x="1040" y="40" as="targetPoint" />
          </mxGeometry>
        </mxCell>
        <mxCell id="dDRyToY2QR6ktd-7hIjk-19" value="" style="endArrow=none;dashed=1;html=1;dashPattern=1 3;strokeWidth=2;rounded=0;" edge="1" parent="1">
          <mxGeometry width="50" height="50" relative="1" as="geometry">
            <mxPoint x="440" y="560" as="sourcePoint" />
            <mxPoint x="1040" y="560" as="targetPoint" />
          </mxGeometry>
        </mxCell>
        <mxCell id="dDRyToY2QR6ktd-7hIjk-20" value="" style="endArrow=none;dashed=1;html=1;dashPattern=1 3;strokeWidth=2;rounded=0;" edge="1" parent="1">
          <mxGeometry width="50" height="50" relative="1" as="geometry">
            <mxPoint x="1040" y="40" as="sourcePoint" />
            <mxPoint x="440" y="40" as="targetPoint" />
          </mxGeometry>
        </mxCell>
        <mxCell id="dDRyToY2QR6ktd-7hIjk-21" value="" style="rounded=1;whiteSpace=wrap;html=1;" vertex="1" parent="1">
          <mxGeometry x="480" y="80" width="160" height="80" as="geometry" />
        </mxCell>
        <mxCell id="dDRyToY2QR6ktd-7hIjk-22" value="Web-приложение&lt;div&gt;&lt;font style=&quot;font-size: 8px;&quot;&gt;[Container: Web Application&lt;span style=&quot;background-color: initial;&quot;&gt;]&lt;/span&gt;&lt;/font&gt;&lt;/div&gt;&lt;div&gt;&lt;span style=&quot;background-color: initial;&quot;&gt;&lt;font style=&quot;font-size: 8px;&quot;&gt;Интерфейс для клиентов&lt;/font&gt;&lt;/span&gt;&lt;/div&gt;" style="text;html=1;align=center;verticalAlign=middle;whiteSpace=wrap;rounded=0;" vertex="1" parent="1">
          <mxGeometry x="480" y="80" width="160" height="80" as="geometry" />
        </mxCell>
        <mxCell id="dDRyToY2QR6ktd-7hIjk-24" value="" style="rounded=1;whiteSpace=wrap;html=1;" vertex="1" parent="1">
          <mxGeometry x="480" y="200" width="160" height="80" as="geometry" />
        </mxCell>
        <mxCell id="dDRyToY2QR6ktd-7hIjk-25" value="Mobile App iOS&lt;br&gt;&lt;div&gt;&lt;font style=&quot;font-size: 8px;&quot;&gt;[Container: iOS&lt;span style=&quot;background-color: initial;&quot;&gt;]&lt;/span&gt;&lt;/font&gt;&lt;/div&gt;&lt;div&gt;&lt;span style=&quot;background-color: initial;&quot;&gt;&lt;font style=&quot;font-size: 8px;&quot;&gt;iOS приложение для клиентов&lt;/font&gt;&lt;/span&gt;&lt;/div&gt;" style="text;html=1;align=center;verticalAlign=middle;whiteSpace=wrap;rounded=0;" vertex="1" parent="1">
          <mxGeometry x="480" y="200" width="160" height="80" as="geometry" />
        </mxCell>
        <mxCell id="dDRyToY2QR6ktd-7hIjk-26" value="" style="rounded=1;whiteSpace=wrap;html=1;" vertex="1" parent="1">
          <mxGeometry x="480" y="320" width="160" height="80" as="geometry" />
        </mxCell>
        <mxCell id="dDRyToY2QR6ktd-7hIjk-27" value="Mobile App Android&lt;br&gt;&lt;div&gt;&lt;font style=&quot;font-size: 8px;&quot;&gt;[Container: Android&lt;span style=&quot;background-color: initial;&quot;&gt;]&lt;/span&gt;&lt;/font&gt;&lt;/div&gt;&lt;div&gt;&lt;span style=&quot;background-color: initial;&quot;&gt;&lt;font style=&quot;font-size: 8px;&quot;&gt;Android приложение для клиентов&lt;/font&gt;&lt;/span&gt;&lt;/div&gt;" style="text;html=1;align=center;verticalAlign=middle;whiteSpace=wrap;rounded=0;" vertex="1" parent="1">
          <mxGeometry x="480" y="320" width="160" height="80" as="geometry" />
        </mxCell>
        <mxCell id="dDRyToY2QR6ktd-7hIjk-28" value="" style="rounded=1;whiteSpace=wrap;html=1;" vertex="1" parent="1">
          <mxGeometry x="480" y="440" width="160" height="80" as="geometry" />
        </mxCell>
        <mxCell id="dDRyToY2QR6ktd-7hIjk-29" value="Web App Admin&lt;div&gt;&lt;font style=&quot;font-size: 8px;&quot;&gt;[Container: Web Application&lt;span style=&quot;background-color: initial;&quot;&gt;]&lt;/span&gt;&lt;/font&gt;&lt;/div&gt;&lt;div&gt;&lt;span style=&quot;background-color: initial;&quot;&gt;&lt;font style=&quot;font-size: 8px;&quot;&gt;Интерфейс для клиентов&lt;/font&gt;&lt;/span&gt;&lt;/div&gt;" style="text;html=1;align=center;verticalAlign=middle;whiteSpace=wrap;rounded=0;" vertex="1" parent="1">
          <mxGeometry x="480" y="440" width="160" height="80" as="geometry" />
        </mxCell>
        <mxCell id="dDRyToY2QR6ktd-7hIjk-30" value="" style="endArrow=block;dashed=1;endFill=0;endSize=12;html=1;rounded=0;exitX=1;exitY=0.5;exitDx=0;exitDy=0;entryX=0;entryY=0.5;entryDx=0;entryDy=0;" edge="1" parent="1" source="dDRyToY2QR6ktd-7hIjk-1" target="dDRyToY2QR6ktd-7hIjk-25">
          <mxGeometry width="160" relative="1" as="geometry">
            <mxPoint x="170" y="190" as="sourcePoint" />
            <mxPoint x="490" y="130" as="targetPoint" />
          </mxGeometry>
        </mxCell>
        <mxCell id="dDRyToY2QR6ktd-7hIjk-31" value="Использует" style="edgeLabel;html=1;align=center;verticalAlign=middle;resizable=0;points=[];" vertex="1" connectable="0" parent="dDRyToY2QR6ktd-7hIjk-30">
          <mxGeometry x="-0.0146" relative="1" as="geometry">
            <mxPoint as="offset" />
          </mxGeometry>
        </mxCell>
        <mxCell id="dDRyToY2QR6ktd-7hIjk-32" value="" style="endArrow=block;dashed=1;endFill=0;endSize=12;html=1;rounded=0;exitX=1;exitY=1;exitDx=0;exitDy=0;entryX=0;entryY=0.5;entryDx=0;entryDy=0;" edge="1" parent="1" source="dDRyToY2QR6ktd-7hIjk-1" target="dDRyToY2QR6ktd-7hIjk-27">
          <mxGeometry width="160" relative="1" as="geometry">
            <mxPoint x="180" y="200" as="sourcePoint" />
            <mxPoint x="500" y="140" as="targetPoint" />
          </mxGeometry>
        </mxCell>
        <mxCell id="dDRyToY2QR6ktd-7hIjk-33" value="Использует" style="edgeLabel;html=1;align=center;verticalAlign=middle;resizable=0;points=[];" vertex="1" connectable="0" parent="dDRyToY2QR6ktd-7hIjk-32">
          <mxGeometry x="-0.0146" relative="1" as="geometry">
            <mxPoint as="offset" />
          </mxGeometry>
        </mxCell>
        <mxCell id="dDRyToY2QR6ktd-7hIjk-34" value="" style="rounded=1;whiteSpace=wrap;html=1;" vertex="1" parent="1">
          <mxGeometry x="840" y="230" width="160" height="120" as="geometry" />
        </mxCell>
        <mxCell id="dDRyToY2QR6ktd-7hIjk-35" value="Backend&lt;div&gt;&lt;div&gt;&lt;font style=&quot;font-size: 8px;&quot;&gt;[Container: Server-side Application&lt;span style=&quot;background-color: initial;&quot;&gt;]&lt;/span&gt;&lt;/font&gt;&lt;/div&gt;&lt;div&gt;&lt;span style=&quot;font-size: 8px;&quot;&gt;Обрабатывает бизнес-логику, содержит сервисы и базу данных&lt;/span&gt;&lt;/div&gt;&lt;/div&gt;" style="text;html=1;align=center;verticalAlign=middle;whiteSpace=wrap;rounded=0;" vertex="1" parent="1">
          <mxGeometry x="840" y="230" width="160" height="120" as="geometry" />
        </mxCell>
        <mxCell id="dDRyToY2QR6ktd-7hIjk-36" value="" style="endArrow=block;dashed=1;endFill=0;endSize=12;html=1;rounded=0;exitX=1;exitY=0.5;exitDx=0;exitDy=0;entryX=0.25;entryY=0;entryDx=0;entryDy=0;" edge="1" parent="1" source="dDRyToY2QR6ktd-7hIjk-22" target="dDRyToY2QR6ktd-7hIjk-35">
          <mxGeometry width="160" relative="1" as="geometry">
            <mxPoint x="680" y="100" as="sourcePoint" />
            <mxPoint x="1018" y="252" as="targetPoint" />
          </mxGeometry>
        </mxCell>
        <mxCell id="dDRyToY2QR6ktd-7hIjk-37" value="API" style="edgeLabel;html=1;align=center;verticalAlign=middle;resizable=0;points=[];" vertex="1" connectable="0" parent="dDRyToY2QR6ktd-7hIjk-36">
          <mxGeometry x="-0.0146" relative="1" as="geometry">
            <mxPoint as="offset" />
          </mxGeometry>
        </mxCell>
        <mxCell id="dDRyToY2QR6ktd-7hIjk-38" value="" style="endArrow=block;dashed=1;endFill=0;endSize=12;html=1;rounded=0;exitX=1;exitY=0.5;exitDx=0;exitDy=0;entryX=0;entryY=0.25;entryDx=0;entryDy=0;" edge="1" parent="1" source="dDRyToY2QR6ktd-7hIjk-25" target="dDRyToY2QR6ktd-7hIjk-35">
          <mxGeometry width="160" relative="1" as="geometry">
            <mxPoint x="690" y="288" as="sourcePoint" />
            <mxPoint x="1028" y="440" as="targetPoint" />
          </mxGeometry>
        </mxCell>
        <mxCell id="dDRyToY2QR6ktd-7hIjk-39" value="API" style="edgeLabel;html=1;align=center;verticalAlign=middle;resizable=0;points=[];" vertex="1" connectable="0" parent="dDRyToY2QR6ktd-7hIjk-38">
          <mxGeometry x="-0.0146" relative="1" as="geometry">
            <mxPoint as="offset" />
          </mxGeometry>
        </mxCell>
        <mxCell id="dDRyToY2QR6ktd-7hIjk-40" value="" style="endArrow=block;dashed=1;endFill=0;endSize=12;html=1;rounded=0;exitX=1;exitY=0.5;exitDx=0;exitDy=0;entryX=0;entryY=0.75;entryDx=0;entryDy=0;" edge="1" parent="1" source="dDRyToY2QR6ktd-7hIjk-27" target="dDRyToY2QR6ktd-7hIjk-35">
          <mxGeometry width="160" relative="1" as="geometry">
            <mxPoint x="662" y="328" as="sourcePoint" />
            <mxPoint x="1000" y="480" as="targetPoint" />
          </mxGeometry>
        </mxCell>
        <mxCell id="dDRyToY2QR6ktd-7hIjk-41" value="API" style="edgeLabel;html=1;align=center;verticalAlign=middle;resizable=0;points=[];" vertex="1" connectable="0" parent="dDRyToY2QR6ktd-7hIjk-40">
          <mxGeometry x="-0.0146" relative="1" as="geometry">
            <mxPoint as="offset" />
          </mxGeometry>
        </mxCell>
        <mxCell id="dDRyToY2QR6ktd-7hIjk-42" value="" style="endArrow=block;dashed=1;endFill=0;endSize=12;html=1;rounded=0;exitX=1;exitY=0.5;exitDx=0;exitDy=0;entryX=0.25;entryY=1;entryDx=0;entryDy=0;" edge="1" parent="1" source="dDRyToY2QR6ktd-7hIjk-29" target="dDRyToY2QR6ktd-7hIjk-35">
          <mxGeometry width="160" relative="1" as="geometry">
            <mxPoint x="662" y="368" as="sourcePoint" />
            <mxPoint x="1000" y="520" as="targetPoint" />
          </mxGeometry>
        </mxCell>
        <mxCell id="dDRyToY2QR6ktd-7hIjk-43" value="API" style="edgeLabel;html=1;align=center;verticalAlign=middle;resizable=0;points=[];" vertex="1" connectable="0" parent="dDRyToY2QR6ktd-7hIjk-42">
          <mxGeometry x="-0.0146" relative="1" as="geometry">
            <mxPoint as="offset" />
          </mxGeometry>
        </mxCell>
        <mxCell id="dDRyToY2QR6ktd-7hIjk-44" value="&lt;font style=&quot;font-size: 10px;&quot;&gt;Hospital App&lt;/font&gt;&lt;div&gt;&lt;font style=&quot;font-size: 8px;&quot;&gt;[Software System]&lt;/font&gt;&lt;/div&gt;" style="text;html=1;align=center;verticalAlign=middle;whiteSpace=wrap;rounded=0;" vertex="1" parent="1">
          <mxGeometry x="940" y="520" width="100" height="30" as="geometry" />
        </mxCell>
      </root>
    </mxGraphModel>
  </diagram>
  <diagram id="UXCqeQwJuvBw5PNVisz1" name="Страница — 3">
    <mxGraphModel dx="1102" dy="2163" grid="1" gridSize="10" guides="1" tooltips="1" connect="1" arrows="1" fold="1" page="1" pageScale="1" pageWidth="827" pageHeight="1169" math="0" shadow="0">
      <root>
        <mxCell id="0" />
        <mxCell id="1" parent="0" />
        <mxCell id="JpHHE_vwG0AFMkasyZWU-1" value="" style="rounded=1;whiteSpace=wrap;html=1;" parent="1" vertex="1">
          <mxGeometry x="80" y="-880" width="160" height="80" as="geometry" />
        </mxCell>
        <mxCell id="JpHHE_vwG0AFMkasyZWU-2" value="Web-приложение&lt;div&gt;&lt;font style=&quot;font-size: 8px;&quot;&gt;[Container: Web Application&lt;span style=&quot;background-color: initial;&quot;&gt;]&lt;/span&gt;&lt;/font&gt;&lt;/div&gt;&lt;div&gt;&lt;span style=&quot;background-color: initial;&quot;&gt;&lt;font style=&quot;font-size: 8px;&quot;&gt;Интерфейс для клиентов&lt;/font&gt;&lt;/span&gt;&lt;/div&gt;" style="text;html=1;align=center;verticalAlign=middle;whiteSpace=wrap;rounded=0;" parent="1" vertex="1">
          <mxGeometry x="80" y="-880" width="160" height="80" as="geometry" />
        </mxCell>
        <mxCell id="JpHHE_vwG0AFMkasyZWU-3" value="" style="rounded=1;whiteSpace=wrap;html=1;" parent="1" vertex="1">
          <mxGeometry x="80" y="-760" width="160" height="80" as="geometry" />
        </mxCell>
        <mxCell id="JpHHE_vwG0AFMkasyZWU-4" value="Mobile App iOS&lt;br&gt;&lt;div&gt;&lt;font style=&quot;font-size: 8px;&quot;&gt;[Container: iOS&lt;span style=&quot;background-color: initial;&quot;&gt;]&lt;/span&gt;&lt;/font&gt;&lt;/div&gt;&lt;div&gt;&lt;span style=&quot;background-color: initial;&quot;&gt;&lt;font style=&quot;font-size: 8px;&quot;&gt;iOS приложение для клиентов&lt;/font&gt;&lt;/span&gt;&lt;/div&gt;" style="text;html=1;align=center;verticalAlign=middle;whiteSpace=wrap;rounded=0;" parent="1" vertex="1">
          <mxGeometry x="80" y="-760" width="160" height="80" as="geometry" />
        </mxCell>
        <mxCell id="JpHHE_vwG0AFMkasyZWU-5" value="" style="rounded=1;whiteSpace=wrap;html=1;" parent="1" vertex="1">
          <mxGeometry x="80" y="-640" width="160" height="80" as="geometry" />
        </mxCell>
        <mxCell id="JpHHE_vwG0AFMkasyZWU-6" value="Mobile App Android&lt;br&gt;&lt;div&gt;&lt;font style=&quot;font-size: 8px;&quot;&gt;[Container: Android&lt;span style=&quot;background-color: initial;&quot;&gt;]&lt;/span&gt;&lt;/font&gt;&lt;/div&gt;&lt;div&gt;&lt;span style=&quot;background-color: initial;&quot;&gt;&lt;font style=&quot;font-size: 8px;&quot;&gt;Android приложение для клиентов&lt;/font&gt;&lt;/span&gt;&lt;/div&gt;" style="text;html=1;align=center;verticalAlign=middle;whiteSpace=wrap;rounded=0;" parent="1" vertex="1">
          <mxGeometry x="80" y="-640" width="160" height="80" as="geometry" />
        </mxCell>
        <mxCell id="JpHHE_vwG0AFMkasyZWU-7" value="" style="rounded=1;whiteSpace=wrap;html=1;" parent="1" vertex="1">
          <mxGeometry x="80" y="-520" width="160" height="80" as="geometry" />
        </mxCell>
        <mxCell id="JpHHE_vwG0AFMkasyZWU-8" value="Web App Admin&lt;div&gt;&lt;font style=&quot;font-size: 8px;&quot;&gt;[Container: Web Application&lt;span style=&quot;background-color: initial;&quot;&gt;]&lt;/span&gt;&lt;/font&gt;&lt;/div&gt;&lt;div&gt;&lt;span style=&quot;background-color: initial;&quot;&gt;&lt;font style=&quot;font-size: 8px;&quot;&gt;Интерфейс для клиентов&lt;/font&gt;&lt;/span&gt;&lt;/div&gt;" style="text;html=1;align=center;verticalAlign=middle;whiteSpace=wrap;rounded=0;" parent="1" vertex="1">
          <mxGeometry x="80" y="-520" width="160" height="80" as="geometry" />
        </mxCell>
        <mxCell id="JpHHE_vwG0AFMkasyZWU-9" value="Балансировщик соединений&lt;div&gt;&lt;font style=&quot;font-size: 10px;&quot;&gt;[Component: Nginx]&lt;/font&gt;&lt;/div&gt;&lt;div&gt;&lt;br&gt;&lt;/div&gt;&lt;div&gt;&lt;font style=&quot;font-size: 8px;&quot;&gt;Распределяет нагрузку на систему&lt;/font&gt;&lt;/div&gt;" style="rounded=1;whiteSpace=wrap;html=1;" parent="1" vertex="1">
          <mxGeometry x="360" y="-720" width="160" height="120" as="geometry" />
        </mxCell>
        <mxCell id="JpHHE_vwG0AFMkasyZWU-10" value="" style="endArrow=classic;html=1;rounded=0;exitX=1;exitY=0.5;exitDx=0;exitDy=0;entryX=0.25;entryY=0;entryDx=0;entryDy=0;" parent="1" source="JpHHE_vwG0AFMkasyZWU-2" target="JpHHE_vwG0AFMkasyZWU-9" edge="1">
          <mxGeometry width="50" height="50" relative="1" as="geometry">
            <mxPoint x="320" y="-880" as="sourcePoint" />
            <mxPoint x="370" y="-930" as="targetPoint" />
            <Array as="points">
              <mxPoint x="400" y="-840" />
            </Array>
          </mxGeometry>
        </mxCell>
        <mxCell id="JpHHE_vwG0AFMkasyZWU-14" value="Вызывает&lt;div&gt;&lt;font style=&quot;font-size: 8px;&quot;&gt;[REST API]&lt;/font&gt;&lt;/div&gt;" style="edgeLabel;html=1;align=center;verticalAlign=middle;resizable=0;points=[];" parent="JpHHE_vwG0AFMkasyZWU-10" vertex="1" connectable="0">
          <mxGeometry x="-0.6108" y="2" relative="1" as="geometry">
            <mxPoint x="-14" y="2" as="offset" />
          </mxGeometry>
        </mxCell>
        <mxCell id="JpHHE_vwG0AFMkasyZWU-11" value="" style="endArrow=classic;html=1;rounded=0;exitX=1;exitY=0.5;exitDx=0;exitDy=0;entryX=0;entryY=0.25;entryDx=0;entryDy=0;" parent="1" source="JpHHE_vwG0AFMkasyZWU-4" target="JpHHE_vwG0AFMkasyZWU-9" edge="1">
          <mxGeometry width="50" height="50" relative="1" as="geometry">
            <mxPoint x="250" y="-720" as="sourcePoint" />
            <mxPoint x="450" y="-600" as="targetPoint" />
            <Array as="points">
              <mxPoint x="320" y="-720" />
              <mxPoint x="320" y="-690" />
            </Array>
          </mxGeometry>
        </mxCell>
        <mxCell id="JpHHE_vwG0AFMkasyZWU-12" value="" style="endArrow=classic;html=1;rounded=0;exitX=1;exitY=0.5;exitDx=0;exitDy=0;entryX=0;entryY=0.75;entryDx=0;entryDy=0;" parent="1" source="JpHHE_vwG0AFMkasyZWU-6" target="JpHHE_vwG0AFMkasyZWU-9" edge="1">
          <mxGeometry width="50" height="50" relative="1" as="geometry">
            <mxPoint x="260" y="-600" as="sourcePoint" />
            <mxPoint x="380" y="-570" as="targetPoint" />
            <Array as="points">
              <mxPoint x="320" y="-600" />
              <mxPoint x="320" y="-630" />
            </Array>
          </mxGeometry>
        </mxCell>
        <mxCell id="JpHHE_vwG0AFMkasyZWU-13" value="" style="endArrow=classic;html=1;rounded=0;exitX=1;exitY=0.5;exitDx=0;exitDy=0;entryX=0.25;entryY=1;entryDx=0;entryDy=0;" parent="1" source="JpHHE_vwG0AFMkasyZWU-8" target="JpHHE_vwG0AFMkasyZWU-9" edge="1">
          <mxGeometry width="50" height="50" relative="1" as="geometry">
            <mxPoint x="260" y="-490" as="sourcePoint" />
            <mxPoint x="380" y="-460" as="targetPoint" />
            <Array as="points">
              <mxPoint x="310" y="-480" />
              <mxPoint x="400" y="-480" />
            </Array>
          </mxGeometry>
        </mxCell>
        <mxCell id="JpHHE_vwG0AFMkasyZWU-15" value="Вызывает&lt;div&gt;&lt;font style=&quot;font-size: 8px;&quot;&gt;[REST API]&lt;/font&gt;&lt;/div&gt;" style="edgeLabel;html=1;align=center;verticalAlign=middle;resizable=0;points=[];" parent="1" vertex="1" connectable="0">
          <mxGeometry x="280" y="-720" as="geometry" />
        </mxCell>
        <mxCell id="JpHHE_vwG0AFMkasyZWU-16" value="Вызывает&lt;div&gt;&lt;font style=&quot;font-size: 8px;&quot;&gt;[REST API]&lt;/font&gt;&lt;/div&gt;" style="edgeLabel;html=1;align=center;verticalAlign=middle;resizable=0;points=[];" parent="1" vertex="1" connectable="0">
          <mxGeometry x="280" y="-600" as="geometry" />
        </mxCell>
        <mxCell id="JpHHE_vwG0AFMkasyZWU-17" value="Вызывает&lt;div&gt;&lt;font style=&quot;font-size: 8px;&quot;&gt;[REST API]&lt;/font&gt;&lt;/div&gt;" style="edgeLabel;html=1;align=center;verticalAlign=middle;resizable=0;points=[];" parent="1" vertex="1" connectable="0">
          <mxGeometry x="280" y="-812" as="geometry">
            <mxPoint x="-5" y="336" as="offset" />
          </mxGeometry>
        </mxCell>
        <mxCell id="JpHHE_vwG0AFMkasyZWU-18" value="Сервис авторизации и регистрации пользователей&lt;div&gt;&lt;div&gt;&lt;font style=&quot;font-size: 10px;&quot;&gt;[Component: Main Servive]&lt;/font&gt;&lt;/div&gt;&lt;div&gt;&lt;span style=&quot;font-size: 8px;&quot;&gt;Управление пользователями системы&lt;/span&gt;&lt;/div&gt;&lt;/div&gt;" style="rounded=1;whiteSpace=wrap;html=1;" parent="1" vertex="1">
          <mxGeometry x="640" y="-920" width="160" height="120" as="geometry" />
        </mxCell>
        <mxCell id="JpHHE_vwG0AFMkasyZWU-19" value="Сервис записи на приём&lt;div&gt;&lt;div&gt;&lt;font style=&quot;font-size: 10px;&quot;&gt;[Component: Main Servive]&lt;/font&gt;&lt;/div&gt;&lt;div&gt;&lt;span style=&quot;font-size: 8px;&quot;&gt;Реализует логику проверки свободного времени и создания заявки&lt;/span&gt;&lt;/div&gt;&lt;/div&gt;" style="rounded=1;whiteSpace=wrap;html=1;" parent="1" vertex="1">
          <mxGeometry x="640" y="-760" width="160" height="80" as="geometry" />
        </mxCell>
        <mxCell id="JpHHE_vwG0AFMkasyZWU-20" value="Сервис рассылки уведомлений&lt;div&gt;&lt;div&gt;&lt;font style=&quot;font-size: 10px;&quot;&gt;[Component: Main Servive]&lt;/font&gt;&lt;/div&gt;&lt;div&gt;&lt;span style=&quot;font-size: 8px;&quot;&gt;Отправка уведомлений пользователям&lt;/span&gt;&lt;/div&gt;&lt;/div&gt;" style="rounded=1;whiteSpace=wrap;html=1;" parent="1" vertex="1">
          <mxGeometry x="640" y="-270" width="160" height="80" as="geometry" />
        </mxCell>
        <mxCell id="JpHHE_vwG0AFMkasyZWU-21" value="Остальная бизнес-логика&lt;div&gt;&lt;div&gt;&lt;font style=&quot;font-size: 10px;&quot;&gt;[Component: Main Servive]&lt;/font&gt;&lt;/div&gt;&lt;div&gt;&lt;span style=&quot;font-size: 8px;&quot;&gt;Реализует запросы и ответы базовой функциональности системы&lt;/span&gt;&lt;/div&gt;&lt;/div&gt;" style="rounded=1;whiteSpace=wrap;html=1;" parent="1" vertex="1">
          <mxGeometry x="640" y="-520" width="160" height="80" as="geometry" />
        </mxCell>
        <mxCell id="JpHHE_vwG0AFMkasyZWU-22" value="" style="endArrow=classic;startArrow=classic;html=1;rounded=0;exitX=1;exitY=0;exitDx=0;exitDy=0;entryX=0.006;entryY=0.58;entryDx=0;entryDy=0;entryPerimeter=0;" parent="1" source="JpHHE_vwG0AFMkasyZWU-9" target="JpHHE_vwG0AFMkasyZWU-18" edge="1">
          <mxGeometry width="50" height="50" relative="1" as="geometry">
            <mxPoint x="510" y="-730" as="sourcePoint" />
            <mxPoint x="630" y="-840" as="targetPoint" />
            <Array as="points">
              <mxPoint x="520" y="-850" />
            </Array>
          </mxGeometry>
        </mxCell>
        <mxCell id="JpHHE_vwG0AFMkasyZWU-26" value="REST API" style="edgeLabel;html=1;align=center;verticalAlign=middle;resizable=0;points=[];" parent="JpHHE_vwG0AFMkasyZWU-22" vertex="1" connectable="0">
          <mxGeometry x="0.3508" y="1" relative="1" as="geometry">
            <mxPoint x="18" y="1" as="offset" />
          </mxGeometry>
        </mxCell>
        <mxCell id="JpHHE_vwG0AFMkasyZWU-23" value="" style="endArrow=classic;startArrow=classic;html=1;rounded=0;entryX=0;entryY=0.5;entryDx=0;entryDy=0;exitX=1;exitY=1;exitDx=0;exitDy=0;" parent="1" source="JpHHE_vwG0AFMkasyZWU-9" target="JpHHE_vwG0AFMkasyZWU-21" edge="1">
          <mxGeometry width="50" height="50" relative="1" as="geometry">
            <mxPoint x="480" y="-540" as="sourcePoint" />
            <mxPoint x="620" y="-550" as="targetPoint" />
            <Array as="points">
              <mxPoint x="520" y="-480" />
            </Array>
          </mxGeometry>
        </mxCell>
        <mxCell id="JpHHE_vwG0AFMkasyZWU-29" value="REST API" style="edgeLabel;html=1;align=center;verticalAlign=middle;resizable=0;points=[];" parent="JpHHE_vwG0AFMkasyZWU-23" vertex="1" connectable="0">
          <mxGeometry x="0.4424" y="2" relative="1" as="geometry">
            <mxPoint x="-13" y="2" as="offset" />
          </mxGeometry>
        </mxCell>
        <mxCell id="JpHHE_vwG0AFMkasyZWU-24" value="" style="endArrow=classic;startArrow=classic;html=1;rounded=0;entryX=0;entryY=0.5;entryDx=0;entryDy=0;exitX=1;exitY=0.25;exitDx=0;exitDy=0;" parent="1" source="JpHHE_vwG0AFMkasyZWU-9" target="JpHHE_vwG0AFMkasyZWU-19" edge="1">
          <mxGeometry width="50" height="50" relative="1" as="geometry">
            <mxPoint x="540" y="-700" as="sourcePoint" />
            <mxPoint x="660" y="-820" as="targetPoint" />
            <Array as="points">
              <mxPoint x="610" y="-690" />
              <mxPoint x="610" y="-720" />
            </Array>
          </mxGeometry>
        </mxCell>
        <mxCell id="JpHHE_vwG0AFMkasyZWU-27" value="REST API" style="edgeLabel;html=1;align=center;verticalAlign=middle;resizable=0;points=[];" parent="JpHHE_vwG0AFMkasyZWU-24" vertex="1" connectable="0">
          <mxGeometry x="-0.2655" relative="1" as="geometry">
            <mxPoint x="-5" as="offset" />
          </mxGeometry>
        </mxCell>
        <mxCell id="JpHHE_vwG0AFMkasyZWU-25" value="" style="endArrow=classic;startArrow=classic;html=1;rounded=0;entryX=0;entryY=0.5;entryDx=0;entryDy=0;exitX=1;exitY=0.75;exitDx=0;exitDy=0;" parent="1" source="JpHHE_vwG0AFMkasyZWU-9" target="JpHHE_vwG0AFMkasyZWU-20" edge="1">
          <mxGeometry width="50" height="50" relative="1" as="geometry">
            <mxPoint x="530" y="-620" as="sourcePoint" />
            <mxPoint x="650" y="-650" as="targetPoint" />
            <Array as="points">
              <mxPoint x="610" y="-630" />
              <mxPoint x="610" y="-600" />
              <mxPoint x="610" y="-230" />
            </Array>
          </mxGeometry>
        </mxCell>
        <mxCell id="JpHHE_vwG0AFMkasyZWU-28" value="REST API" style="edgeLabel;html=1;align=center;verticalAlign=middle;resizable=0;points=[];" parent="JpHHE_vwG0AFMkasyZWU-25" vertex="1" connectable="0">
          <mxGeometry x="-0.4788" relative="1" as="geometry">
            <mxPoint x="-40" y="-45" as="offset" />
          </mxGeometry>
        </mxCell>
        <mxCell id="JpHHE_vwG0AFMkasyZWU-30" value="БД Пользователей&lt;div&gt;&lt;font style=&quot;font-size: 10px;&quot;&gt;[Container: SQLite]&lt;/font&gt;&lt;/div&gt;&lt;div&gt;&lt;font style=&quot;font-size: 8px;&quot;&gt;Данные о регистрации, о авторизации&lt;/font&gt;&lt;/div&gt;" style="shape=cylinder3;whiteSpace=wrap;html=1;boundedLbl=1;backgroundOutline=1;size=15;" parent="1" vertex="1">
          <mxGeometry x="1000" y="-892" width="160" height="80" as="geometry" />
        </mxCell>
        <mxCell id="JpHHE_vwG0AFMkasyZWU-31" value="БД Основная&lt;div&gt;&lt;font style=&quot;font-size: 10px;&quot;&gt;[Container: SQLite]&lt;/font&gt;&lt;/div&gt;&lt;div&gt;&lt;span style=&quot;font-size: 8px;&quot;&gt;Общие данные о системе&lt;/span&gt;&lt;/div&gt;" style="shape=cylinder3;whiteSpace=wrap;html=1;boundedLbl=1;backgroundOutline=1;size=15;" parent="1" vertex="1">
          <mxGeometry x="1000" y="-760" width="160" height="80" as="geometry" />
        </mxCell>
        <mxCell id="JpHHE_vwG0AFMkasyZWU-32" value="БД Резервная&lt;div&gt;&lt;font style=&quot;font-size: 10px;&quot;&gt;[Container: SQLite]&lt;/font&gt;&lt;/div&gt;&lt;div&gt;&lt;font style=&quot;font-size: 8px;&quot;&gt;Дубликат основной бд&lt;/font&gt;&lt;/div&gt;" style="shape=cylinder3;whiteSpace=wrap;html=1;boundedLbl=1;backgroundOutline=1;size=15;" parent="1" vertex="1">
          <mxGeometry x="1000" y="-520" width="160" height="90" as="geometry" />
        </mxCell>
        <mxCell id="JpHHE_vwG0AFMkasyZWU-33" value="" style="endArrow=classic;html=1;rounded=0;entryX=0;entryY=0.5;entryDx=0;entryDy=0;entryPerimeter=0;exitX=1.004;exitY=0.588;exitDx=0;exitDy=0;exitPerimeter=0;" parent="1" source="JpHHE_vwG0AFMkasyZWU-18" target="JpHHE_vwG0AFMkasyZWU-30" edge="1">
          <mxGeometry width="50" height="50" relative="1" as="geometry">
            <mxPoint x="780" y="-840" as="sourcePoint" />
            <mxPoint x="870" y="-870" as="targetPoint" />
          </mxGeometry>
        </mxCell>
        <mxCell id="JpHHE_vwG0AFMkasyZWU-38" value="&lt;font style=&quot;font-size: 10px;&quot;&gt;Управление данными&lt;/font&gt;&lt;div&gt;&lt;font style=&quot;font-size: 10px;&quot;&gt;о пользователях&lt;/font&gt;&lt;/div&gt;&lt;div&gt;&lt;font style=&quot;font-size: 10px;&quot;&gt;[SQL]&lt;/font&gt;&lt;/div&gt;" style="edgeLabel;html=1;align=center;verticalAlign=middle;resizable=0;points=[];" parent="JpHHE_vwG0AFMkasyZWU-33" vertex="1" connectable="0">
          <mxGeometry x="-0.211" y="2" relative="1" as="geometry">
            <mxPoint x="17" y="2" as="offset" />
          </mxGeometry>
        </mxCell>
        <mxCell id="JpHHE_vwG0AFMkasyZWU-34" value="" style="endArrow=classic;html=1;rounded=0;exitX=1;exitY=0.5;exitDx=0;exitDy=0;entryX=0;entryY=0.5;entryDx=0;entryDy=0;entryPerimeter=0;" parent="1" source="JpHHE_vwG0AFMkasyZWU-19" target="JpHHE_vwG0AFMkasyZWU-31" edge="1">
          <mxGeometry width="50" height="50" relative="1" as="geometry">
            <mxPoint x="780" y="-730" as="sourcePoint" />
            <mxPoint x="910" y="-737" as="targetPoint" />
          </mxGeometry>
        </mxCell>
        <mxCell id="JpHHE_vwG0AFMkasyZWU-39" value="&lt;font style=&quot;font-size: 10px;&quot;&gt;Получение и запись&amp;nbsp;&lt;/font&gt;&lt;div&gt;&lt;font style=&quot;font-size: 10px;&quot;&gt;данных&lt;/font&gt;&lt;/div&gt;&lt;div&gt;&lt;font style=&quot;font-size: 10px;&quot;&gt;[SQL]&lt;/font&gt;&lt;/div&gt;" style="edgeLabel;html=1;align=center;verticalAlign=middle;resizable=0;points=[];" parent="JpHHE_vwG0AFMkasyZWU-34" vertex="1" connectable="0">
          <mxGeometry x="-0.1468" y="1" relative="1" as="geometry">
            <mxPoint x="58" y="-9" as="offset" />
          </mxGeometry>
        </mxCell>
        <mxCell id="JpHHE_vwG0AFMkasyZWU-35" value="" style="endArrow=classic;html=1;rounded=0;exitX=1;exitY=0.75;exitDx=0;exitDy=0;entryX=0;entryY=0;entryDx=0;entryDy=60;entryPerimeter=0;" parent="1" source="JpHHE_vwG0AFMkasyZWU-21" target="JpHHE_vwG0AFMkasyZWU-32" edge="1">
          <mxGeometry width="50" height="50" relative="1" as="geometry">
            <mxPoint x="770" y="-480" as="sourcePoint" />
            <mxPoint x="990" y="-440" as="targetPoint" />
          </mxGeometry>
        </mxCell>
        <mxCell id="JpHHE_vwG0AFMkasyZWU-36" value="" style="endArrow=classic;html=1;rounded=0;exitX=1;exitY=0.5;exitDx=0;exitDy=0;entryX=0;entryY=0;entryDx=0;entryDy=52.5;entryPerimeter=0;" parent="1" source="JpHHE_vwG0AFMkasyZWU-21" target="JpHHE_vwG0AFMkasyZWU-31" edge="1">
          <mxGeometry width="50" height="50" relative="1" as="geometry">
            <mxPoint x="770" y="-520" as="sourcePoint" />
            <mxPoint x="930" y="-520" as="targetPoint" />
            <Array as="points">
              <mxPoint x="960" y="-480" />
              <mxPoint x="960" y="-707" />
            </Array>
          </mxGeometry>
        </mxCell>
        <mxCell id="JpHHE_vwG0AFMkasyZWU-37" value="" style="endArrow=classic;html=1;rounded=0;exitX=1;exitY=0.75;exitDx=0;exitDy=0;entryX=0;entryY=0;entryDx=0;entryDy=15;entryPerimeter=0;" parent="1" source="JpHHE_vwG0AFMkasyZWU-19" target="JpHHE_vwG0AFMkasyZWU-32" edge="1">
          <mxGeometry width="50" height="50" relative="1" as="geometry">
            <mxPoint x="770" y="-710" as="sourcePoint" />
            <mxPoint x="925" y="-710" as="targetPoint" />
            <Array as="points">
              <mxPoint x="930" y="-700" />
              <mxPoint x="930" y="-505" />
            </Array>
          </mxGeometry>
        </mxCell>
        <mxCell id="JpHHE_vwG0AFMkasyZWU-40" value="&lt;font style=&quot;font-size: 10px;&quot;&gt;Получение и запись&amp;nbsp;&lt;/font&gt;&lt;div&gt;&lt;font style=&quot;font-size: 10px;&quot;&gt;данных&lt;/font&gt;&lt;/div&gt;&lt;div&gt;&lt;font style=&quot;font-size: 10px;&quot;&gt;[SQL]&lt;/font&gt;&lt;/div&gt;" style="edgeLabel;html=1;align=center;verticalAlign=middle;resizable=0;points=[];" parent="1" vertex="1" connectable="0">
          <mxGeometry x="920" y="-450" as="geometry" />
        </mxCell>
        <mxCell id="JpHHE_vwG0AFMkasyZWU-41" value="&lt;font style=&quot;font-size: 10px;&quot;&gt;Получение и запись&amp;nbsp;&lt;/font&gt;&lt;div&gt;&lt;font style=&quot;font-size: 10px;&quot;&gt;данных&lt;/font&gt;&lt;/div&gt;&lt;div&gt;&lt;font style=&quot;font-size: 10px;&quot;&gt;[SQL]&lt;/font&gt;&lt;/div&gt;" style="edgeLabel;html=1;align=center;verticalAlign=middle;resizable=0;points=[];" parent="1" vertex="1" connectable="0">
          <mxGeometry x="870" y="-490" as="geometry">
            <mxPoint x="-3" y="-1" as="offset" />
          </mxGeometry>
        </mxCell>
        <mxCell id="JpHHE_vwG0AFMkasyZWU-42" value="&lt;font style=&quot;font-size: 10px;&quot;&gt;Получение и запись&amp;nbsp;&lt;/font&gt;&lt;div&gt;&lt;font style=&quot;font-size: 10px;&quot;&gt;данных&lt;/font&gt;&lt;/div&gt;&lt;div&gt;&lt;font style=&quot;font-size: 10px;&quot;&gt;[SQL]&lt;/font&gt;&lt;/div&gt;" style="edgeLabel;html=1;align=center;verticalAlign=middle;resizable=0;points=[];" parent="1" vertex="1" connectable="0">
          <mxGeometry x="900" y="-710" as="geometry">
            <mxPoint x="-38" y="21" as="offset" />
          </mxGeometry>
        </mxCell>
        <mxCell id="JpHHE_vwG0AFMkasyZWU-43" value="Сервис генерации отчётов&lt;div&gt;&lt;font style=&quot;font-size: 10px;&quot;&gt;[Component: Main Servive]&lt;/font&gt;&lt;/div&gt;&lt;div&gt;&lt;font style=&quot;font-size: 8px;&quot;&gt;Генерация отчётов для администратора&lt;/font&gt;&lt;/div&gt;" style="rounded=1;whiteSpace=wrap;html=1;" parent="1" vertex="1">
          <mxGeometry x="640" y="-400" width="160" height="90" as="geometry" />
        </mxCell>
        <mxCell id="JpHHE_vwG0AFMkasyZWU-44" value="" style="endArrow=classic;startArrow=classic;html=1;rounded=0;entryX=0;entryY=0.5;entryDx=0;entryDy=0;exitX=0.75;exitY=1;exitDx=0;exitDy=0;" parent="1" source="JpHHE_vwG0AFMkasyZWU-9" target="JpHHE_vwG0AFMkasyZWU-43" edge="1">
          <mxGeometry width="50" height="50" relative="1" as="geometry">
            <mxPoint x="470" y="-580" as="sourcePoint" />
            <mxPoint x="590" y="-460" as="targetPoint" />
            <Array as="points">
              <mxPoint x="480" y="-355" />
            </Array>
          </mxGeometry>
        </mxCell>
        <mxCell id="JpHHE_vwG0AFMkasyZWU-45" value="REST API" style="edgeLabel;html=1;align=center;verticalAlign=middle;resizable=0;points=[];" parent="JpHHE_vwG0AFMkasyZWU-44" vertex="1" connectable="0">
          <mxGeometry x="0.4424" y="2" relative="1" as="geometry">
            <mxPoint x="7" y="2" as="offset" />
          </mxGeometry>
        </mxCell>
        <mxCell id="JpHHE_vwG0AFMkasyZWU-46" value="&lt;div&gt;&lt;font style=&quot;&quot;&gt;Файловое хранилище&lt;/font&gt;&lt;/div&gt;&lt;div&gt;&lt;font style=&quot;font-size: 10px;&quot;&gt;[Container: File System]&lt;/font&gt;&lt;/div&gt;&lt;div&gt;&lt;span style=&quot;font-size: 8px;&quot;&gt;Файловое хранилище (ФХ)&amp;nbsp;&lt;/span&gt;&lt;/div&gt;&lt;div&gt;&lt;span style=&quot;font-size: 8px;&quot;&gt;для pdf отчётов&lt;/span&gt;&lt;/div&gt;" style="shape=cylinder3;whiteSpace=wrap;html=1;boundedLbl=1;backgroundOutline=1;size=15;" parent="1" vertex="1">
          <mxGeometry x="1000" y="-400" width="160" height="90" as="geometry" />
        </mxCell>
        <mxCell id="JpHHE_vwG0AFMkasyZWU-47" value="" style="endArrow=classic;html=1;rounded=0;exitX=1;exitY=0.5;exitDx=0;exitDy=0;entryX=0;entryY=0.5;entryDx=0;entryDy=0;entryPerimeter=0;" parent="1" source="JpHHE_vwG0AFMkasyZWU-43" target="JpHHE_vwG0AFMkasyZWU-46" edge="1">
          <mxGeometry width="50" height="50" relative="1" as="geometry">
            <mxPoint x="780" y="-360" as="sourcePoint" />
            <mxPoint x="1020" y="-360" as="targetPoint" />
          </mxGeometry>
        </mxCell>
        <mxCell id="JpHHE_vwG0AFMkasyZWU-48" value="Запись файлов отчётов&lt;div&gt;[HTTPS]&lt;/div&gt;" style="edgeLabel;html=1;align=center;verticalAlign=middle;resizable=0;points=[];" parent="JpHHE_vwG0AFMkasyZWU-47" vertex="1" connectable="0">
          <mxGeometry x="-0.1573" relative="1" as="geometry">
            <mxPoint as="offset" />
          </mxGeometry>
        </mxCell>
        <mxCell id="In7fJwUpVsapMPvQmuxf-1" value="" style="endArrow=none;dashed=1;html=1;dashPattern=1 3;strokeWidth=2;rounded=0;" parent="1" edge="1">
          <mxGeometry width="50" height="50" relative="1" as="geometry">
            <mxPoint x="330" y="-160" as="sourcePoint" />
            <mxPoint x="330" y="-160" as="targetPoint" />
            <Array as="points">
              <mxPoint x="330" y="-960" />
              <mxPoint x="1190" y="-960" />
              <mxPoint x="1190" y="-160" />
            </Array>
          </mxGeometry>
        </mxCell>
        <mxCell id="In7fJwUpVsapMPvQmuxf-2" value="&amp;nbsp;Hospital App&lt;div&gt;[Container]&lt;/div&gt;" style="text;html=1;align=center;verticalAlign=middle;whiteSpace=wrap;rounded=0;" parent="1" vertex="1">
          <mxGeometry x="1060" y="-190" width="120" height="30" as="geometry" />
        </mxCell>
        <mxCell id="In7fJwUpVsapMPvQmuxf-3" value="Сервис администрирования&lt;div&gt;&lt;div&gt;&lt;font style=&quot;font-size: 10px;&quot;&gt;[Component: Main Servive]&lt;/font&gt;&lt;/div&gt;&lt;div&gt;&lt;span style=&quot;font-size: 8px;&quot;&gt;Обеспечивает работу приложения для администрирования&lt;/span&gt;&lt;/div&gt;&lt;/div&gt;" style="rounded=1;whiteSpace=wrap;html=1;" parent="1" vertex="1">
          <mxGeometry x="640" y="-640" width="160" height="80" as="geometry" />
        </mxCell>
        <mxCell id="In7fJwUpVsapMPvQmuxf-4" value="" style="endArrow=classic;startArrow=classic;html=1;rounded=0;exitX=1;exitY=0.5;exitDx=0;exitDy=0;entryX=0;entryY=0;entryDx=0;entryDy=0;" parent="1" source="JpHHE_vwG0AFMkasyZWU-9" target="In7fJwUpVsapMPvQmuxf-3" edge="1">
          <mxGeometry width="50" height="50" relative="1" as="geometry">
            <mxPoint x="530" y="-710" as="sourcePoint" />
            <mxPoint x="651" y="-840" as="targetPoint" />
            <Array as="points">
              <mxPoint x="610" y="-660" />
              <mxPoint x="610" y="-640" />
            </Array>
          </mxGeometry>
        </mxCell>
        <mxCell id="In7fJwUpVsapMPvQmuxf-5" value="REST API" style="edgeLabel;html=1;align=center;verticalAlign=middle;resizable=0;points=[];" parent="In7fJwUpVsapMPvQmuxf-4" vertex="1" connectable="0">
          <mxGeometry x="0.3508" y="1" relative="1" as="geometry">
            <mxPoint x="-41" y="-4" as="offset" />
          </mxGeometry>
        </mxCell>
        <mxCell id="In7fJwUpVsapMPvQmuxf-6" value="" style="endArrow=classic;html=1;rounded=0;exitX=1;exitY=0.25;exitDx=0;exitDy=0;entryX=0.5;entryY=1;entryDx=0;entryDy=0;entryPerimeter=0;" parent="1" source="In7fJwUpVsapMPvQmuxf-3" target="JpHHE_vwG0AFMkasyZWU-31" edge="1">
          <mxGeometry width="50" height="50" relative="1" as="geometry">
            <mxPoint x="820" y="-573" as="sourcePoint" />
            <mxPoint x="1020" y="-800" as="targetPoint" />
            <Array as="points">
              <mxPoint x="990" y="-620" />
              <mxPoint x="1080" y="-620" />
            </Array>
          </mxGeometry>
        </mxCell>
        <mxCell id="In7fJwUpVsapMPvQmuxf-7" value="" style="endArrow=classic;html=1;rounded=0;exitX=1;exitY=0.75;exitDx=0;exitDy=0;entryX=0.5;entryY=0;entryDx=0;entryDy=0;entryPerimeter=0;" parent="1" source="In7fJwUpVsapMPvQmuxf-3" target="JpHHE_vwG0AFMkasyZWU-32" edge="1">
          <mxGeometry width="50" height="50" relative="1" as="geometry">
            <mxPoint x="820" y="-460" as="sourcePoint" />
            <mxPoint x="1020" y="-687" as="targetPoint" />
            <Array as="points">
              <mxPoint x="1000" y="-580" />
              <mxPoint x="1080" y="-580" />
            </Array>
          </mxGeometry>
        </mxCell>
        <mxCell id="In7fJwUpVsapMPvQmuxf-10" value="&lt;font style=&quot;font-size: 10px;&quot;&gt;Получение и запись&amp;nbsp;&lt;/font&gt;&lt;div&gt;&lt;font style=&quot;font-size: 10px;&quot;&gt;данных&lt;/font&gt;&lt;/div&gt;&lt;div&gt;&lt;font style=&quot;font-size: 10px;&quot;&gt;[SQL]&lt;/font&gt;&lt;/div&gt;" style="edgeLabel;html=1;align=center;verticalAlign=middle;resizable=0;points=[];" parent="1" vertex="1" connectable="0">
          <mxGeometry x="910" y="-650" as="geometry">
            <mxPoint x="-38" y="21" as="offset" />
          </mxGeometry>
        </mxCell>
        <mxCell id="In7fJwUpVsapMPvQmuxf-11" value="&lt;font style=&quot;font-size: 10px;&quot;&gt;Получение и запись&amp;nbsp;&lt;/font&gt;&lt;div&gt;&lt;font style=&quot;font-size: 10px;&quot;&gt;данных&lt;/font&gt;&lt;/div&gt;&lt;div&gt;&lt;span style=&quot;font-size: 10px;&quot;&gt;[SQL]&lt;/span&gt;&lt;/div&gt;" style="edgeLabel;html=1;align=center;verticalAlign=middle;resizable=0;points=[];" parent="1" vertex="1" connectable="0">
          <mxGeometry x="910" y="-590" as="geometry">
            <mxPoint x="-38" y="21" as="offset" />
          </mxGeometry>
        </mxCell>
      </root>
    </mxGraphModel>
  </diagram>
</mxfile>
